<?xml version="1.0" encoding="utf-8"?>
<!-- Generator: Adobe Illustrator 21.1.0, SVG Export Plug-In . SVG Version: 6.00 Build 0)  -->
<svg version="1.1" id="Слой_1" xmlns="http://www.w3.org/2000/svg" xmlns:xlink="http://www.w3.org/1999/xlink" x="0px" y="0px"
	 viewBox="0 0 692 345" style="enable-background:new 0 0 692 345;" xml:space="preserve">
<style type="text/css">
	.st0{stroke:#FFFFFF;stroke-miterlimit:10;}
	.st1{stroke:#000000;stroke-width:5;stroke-miterlimit:10;}
	.st2{fill:#FFFFFF;stroke:#000000;stroke-width:5;stroke-miterlimit:10;}
	.st3{fill:none;stroke:#000000;stroke-width:5;stroke-miterlimit:10;}
	.st4{fill:#FFFFFF;stroke:#FFFFFF;stroke-miterlimit:10;}
	.st5{fill:#FFFFFF;}
	.st6{fill:none;}
	.st7{font-family:'MyriadPro-Regular';}
	.st8{font-size:51px;}
</style>
<g id="main">
	<g id="phone">
		<rect x="4" y="113.5" width="683" height="182"/>
		<rect x="391" y="56" class="st0" width="203" height="39"/>
		<path class="st1" d="M115,37.5H39c-3.6,0-6.5-2.9-6.5-6.5v0c0-3.6,2.9-6.5,6.5-6.5h76c3.6,0,6.5,2.9,6.5,6.5v0
			C121.5,34.6,118.6,37.5,115,37.5z"/>
		<circle class="st2" cx="280" cy="113" r="24.5"/>
		<circle class="st2" cx="228" cy="237" r="27.6"/>
	</g>
	<g id="el">
		<path class="st3" d="M674,340.5H18c-7.5,0-13.5-6-13.5-13.5V51c0-7.5,6-13.5,13.5-13.5h656c7.5,0,13.5,6,13.5,13.5v276
			C687.5,334.5,681.5,340.5,674,340.5z"/>
		<polygon points="594,37.5 391,37.5 441.8,0 543.3,0 		"/>
		<circle class="st2" cx="492" cy="204" r="104.5"/>
		<circle class="st1" cx="491.5" cy="203.5" r="80"/>
	</g>
	<g id="tablet">
		<rect x="391.5" y="70.5" class="st4" width="203" height="10"/>
		<path class="st1" d="M651,37.5h-37c-3.6,0-6.5-2.9-6.5-6.5v0c0-3.6,2.9-6.5,6.5-6.5h37c3.6,0,6.5,2.9,6.5,6.5v0
			C657.5,34.6,654.6,37.5,651,37.5z"/>
		<circle cx="280" cy="22" r="16"/>
		<circle class="st2" cx="466.5" cy="171.5" r="33"/>
		<circle class="st2" cx="516" cy="237" r="16.5"/>
		<rect x="643.5" y="113" class="st5" width="3.5" height="183"/>
		<rect x="650.5" y="113" class="st5" width="3.5" height="183"/>
		<rect x="657.5" y="113" class="st5" width="3.5" height="183"/>
		<rect x="32.1" y="54.6" class="st6" width="192" height="52.5"/>
		<text transform="matrix(1 0 0 1 32.106 90.8066)" class="st7 st8">Zenit- E</text>
	</g>
</g>
</svg>
